<svg width="268" height="69" viewBox="0 0 268 69" fill="none" xmlns="http://www.w3.org/2000/svg">
<path fill-rule="evenodd" clip-rule="evenodd" d="M37.1988 4.94701C37.4719 2.50757 35.7424 0.304789 33.303 0.0317174C30.8635 -0.259559 28.6608 1.4881 28.3877 3.92754C28.06 6.71287 28.5151 10.0443 29.0977 13.4668C30.7179 13.9584 32.2835 14.6684 33.7399 15.5058C35.3055 11.8102 36.8347 8.15105 37.1988 4.94701ZM54.3295 15.6514C53.3646 13.394 50.7432 12.3746 48.4858 13.3394C45.5184 14.632 42.4418 17.1624 39.347 19.7657C40.5121 20.9126 41.6044 22.2051 42.5328 23.6069C46.0463 23.17 49.4142 22.6421 52.0175 21.5134C54.2749 20.5121 55.3126 17.8906 54.3295 15.6514ZM46.8473 3.74549C44.8812 2.28911 42.0959 2.68961 40.6395 4.65573C38.4185 7.64131 36.9257 12.1015 35.3055 16.4524C35.8516 16.8165 36.3614 17.1806 36.8529 17.5629C37.217 17.8542 37.5993 18.1637 37.9816 18.4732C41.6954 15.6696 45.5548 12.9389 47.7758 9.95332C49.2322 7.98721 48.8134 5.20187 46.8473 3.74549Z" fill="white"/>
<path d="M38.4004 39.3905C37.035 40.865 35.5786 42.2304 34.0312 43.5594C31.8649 45.4344 29.6621 47.2549 27.4229 49.0026C25.0199 47.528 23.2904 46.7816 22.9991 47.1639C22.7443 47.5098 23.7455 48.7841 25.5478 50.4408C19.5038 54.9373 13.1139 58.906 6.25073 62.1646C5.17665 62.6744 4.04795 63.0385 2.93746 63.439C2.64618 63.5482 2.3367 63.5482 2.20927 63.5664C0.461608 63.7667 -0.0663309 63.2933 0.00648821 61.6913C0.224946 56.7032 1.77235 52.0246 3.37437 47.3642C3.81129 46.0898 4.26641 44.8155 4.73973 43.5411C7.16097 45.0157 8.89042 45.7803 9.1817 45.398C9.49118 44.9793 8.0348 43.3045 5.59536 41.2109C7.34301 36.6961 9.29093 32.2542 11.5847 27.9943C16.1723 31.3986 20.2502 33.6377 20.7053 33.0188C21.1604 32.3998 17.7926 29.1048 13.1503 25.6641L12.9501 25.5184C13.7511 24.1531 14.5885 22.7877 15.4806 21.4587C16.591 19.7839 17.9564 18.2547 19.3036 16.7619C21.1058 14.7776 23.436 14.104 26.0393 14.6866C34.3771 16.5435 40.1662 21.3313 42.897 29.5417C43.4431 31.2165 42.9516 32.8549 42.0959 34.3659C41.5134 35.3854 40.8762 36.3503 40.1662 37.2605C35.7607 34.0383 31.9377 31.9629 31.5008 32.5455C31.082 33.128 34.1222 36.1318 38.4004 39.3905Z" fill="white"/>
<path d="M92.1045 9.7074C86.3335 9.7074 82.5834 12.0194 80.3078 16.4068H80.1803V13.676C80.1803 11.7099 78.5783 10.1261 76.6122 10.1261C74.6461 10.1261 73.0623 11.7099 73.0623 13.676V43.8778C73.0623 45.8439 74.6461 47.4459 76.6122 47.4459H76.9581C78.9242 47.4459 80.5262 45.8439 80.5262 43.8778V25.8914C80.5262 20.0113 83.8941 16.0973 89.5194 16.0973C94.9808 16.0973 97.6023 19.2649 97.6023 24.9266V43.8778C97.6023 45.8439 99.1861 47.4459 101.152 47.4459H101.498C103.464 47.4459 105.048 45.8439 105.048 43.8778V23.5248C105.048 14.9322 100.351 9.7074 92.1045 9.7074Z" fill="white"/>
<path d="M128.077 9.63452C117.646 9.63452 110.837 17.2441 110.837 28.9134C110.837 40.6009 117.573 47.8828 128.387 47.8828C135.086 47.8828 140.62 44.9154 143.114 40.2914C144.043 38.5983 142.768 36.5048 140.839 36.5048H138.945C137.999 36.5048 137.179 37.0509 136.688 37.8701C135.25 40.346 132.228 41.8388 128.532 41.8388C122.415 41.8388 118.356 37.5789 118.356 31.1162V30.6792H142.204C143.624 30.6792 144.789 29.5141 144.789 28.0942V28.0578C144.789 16.7526 138.326 9.63452 128.077 9.63452ZM118.392 25.3817C118.811 19.6472 122.688 15.7149 128.059 15.7149C133.484 15.7149 137.161 19.5743 137.325 25.3817H118.392Z" fill="white"/>
<path d="M179.506 34.9028H177.521C176.447 34.9028 175.519 35.5763 175.118 36.5776C173.826 39.8727 170.877 41.6385 166.689 41.6385C160.7 41.6385 156.659 36.8143 156.659 28.7859C156.659 20.9397 160.645 15.9334 166.653 15.9334C170.986 15.9334 173.88 18.0815 175.064 21.1399C175.464 22.1594 176.393 22.8694 177.503 22.8694H179.487C181.217 22.8694 182.509 21.1764 181.945 19.5379C180.034 13.9126 174.572 9.63452 166.58 9.63452C156.04 9.63452 149.085 17.1713 149.085 28.7859C149.085 40.6009 156.058 47.8828 166.653 47.8828C174.244 47.8828 179.888 44.169 181.963 38.2888C182.546 36.6322 181.271 34.9028 179.506 34.9028Z" fill="white"/>
<path d="M201.861 41.5839C201.734 41.5657 201.588 41.5475 201.461 41.5475C199.003 41.2562 197.856 39.727 197.856 36.8507V16.0062H202.061C203.7 16.0062 205.01 14.6772 205.01 13.057C205.01 11.4368 203.7 10.126 202.061 10.126H197.856V5.44742C197.856 4.42795 197.437 3.49951 196.764 2.82593C196.09 2.15235 195.18 1.73364 194.142 1.73364C192.103 1.73364 190.447 3.40848 190.447 5.44742V10.126H188.226C186.605 10.126 185.276 11.4368 185.276 13.057C185.276 14.6772 186.605 16.0062 188.226 16.0062H190.447V37.6153C190.447 44.8244 193.323 47.6825 200.787 47.6825C200.805 47.6825 200.823 47.6825 200.823 47.6825C201.679 47.6825 202.462 47.4276 203.117 46.9725C203.135 46.9725 203.154 46.9543 203.154 46.9543C203.918 46.4082 204.428 45.5161 204.428 44.5149C204.428 43.0221 203.317 41.766 201.861 41.5839Z" fill="white"/>
<path d="M226.073 9.63452C220.248 9.63452 215.442 12.0011 212.984 15.6603C212.584 16.2793 212.383 16.9528 212.383 17.6082C212.383 19.4287 213.84 21.1217 215.897 21.1217C217.098 21.1217 218.245 20.4846 218.81 19.4287C220.011 17.1713 222.578 15.7877 225.873 15.7877C230.861 15.7877 233.701 18.1362 233.701 22.3961V22.8512C233.701 24.2165 232.645 25.3452 231.28 25.4181L223.634 25.855C214.422 26.4375 209.38 30.2241 209.38 36.7596C209.38 43.4226 214.532 47.8099 221.996 47.8099C227.075 47.8099 231.717 45.2795 233.774 41.2198H233.938V43.8777C233.938 44.8608 234.338 45.7528 234.976 46.4082C235.631 47.0453 236.523 47.4459 237.506 47.4459C239.472 47.4459 241.056 45.8438 241.056 43.8777V21.8499C241.056 14.4588 235.176 9.63452 226.073 9.63452ZM233.701 33.4282C233.701 38.3253 229.514 41.8752 223.98 41.8752C219.684 41.8752 216.898 39.818 216.898 36.614C216.898 33.3189 219.556 31.4256 224.635 31.1162L233.701 30.4972V33.4282Z" fill="white"/>
<path d="M264.813 9.74377C260.408 9.74377 256.985 12.256 255.802 16.4067H255.674V13.676C255.674 11.7099 254.072 10.1261 252.125 10.1261C250.158 10.1261 248.556 11.7099 248.556 13.676V43.7139C248.556 44.7334 248.975 45.68 249.649 46.3536C250.322 47.0272 251.251 47.4459 252.288 47.4459C254.346 47.4459 256.02 45.771 256.02 43.7139V25.1814C256.02 19.9202 259.115 16.516 264.03 16.516C264.231 16.516 264.449 16.516 264.649 16.5342C266.179 16.5888 267.417 15.3326 267.417 13.8034V12.3653C267.417 10.9271 266.251 9.74377 264.813 9.74377Z" fill="white"/>
<path d="M204.428 44.5149C204.428 45.5161 203.918 46.4082 203.154 46.9543C203.154 46.9543 203.136 46.9725 203.117 46.9725C202.644 47.3002 202.08 47.4822 201.461 47.4822C199.804 47.4822 198.475 46.1533 198.475 44.5149C198.475 42.8764 199.804 41.5475 201.461 41.5475C201.588 41.5475 201.734 41.5657 201.861 41.5839C203.318 41.7659 204.428 43.0221 204.428 44.5149Z" fill="white"/>
<path d="M82.0642 62.7276C81.3455 63.437 80.4728 63.7916 79.4462 63.7916C78.4195 63.7916 77.5468 63.437 76.8282 62.7276C76.1188 62.0183 75.7642 61.1456 75.7642 60.1096C75.7642 59.0736 76.1188 58.201 76.8282 57.4916C77.5468 56.7823 78.4195 56.4276 79.4462 56.4276C80.4728 56.4276 81.3455 56.7823 82.0642 57.4916C82.7828 58.201 83.1422 59.0736 83.1422 60.1096C83.1422 61.1456 82.7828 62.0183 82.0642 62.7276ZM79.4462 62.6016C80.1462 62.6016 80.7342 62.3636 81.2102 61.8876C81.6862 61.4116 81.9242 60.819 81.9242 60.1096C81.9242 59.4003 81.6862 58.8076 81.2102 58.3316C80.7342 57.8556 80.1462 57.6176 79.4462 57.6176C78.7555 57.6176 78.1722 57.8556 77.6962 58.3316C77.2202 58.8076 76.9822 59.4003 76.9822 60.1096C76.9822 60.819 77.2202 61.4116 77.6962 61.8876C78.1722 62.3636 78.7555 62.6016 79.4462 62.6016ZM93.5641 56.4276C94.3854 56.4276 95.0434 56.689 95.5381 57.2116C96.0327 57.725 96.2801 58.425 96.2801 59.3116V63.6096H95.0621V59.3816C95.0621 58.8123 94.9081 58.3736 94.6001 58.0656C94.2921 57.7483 93.8674 57.5896 93.3261 57.5896C92.7194 57.5896 92.2294 57.781 91.8561 58.1636C91.4827 58.537 91.2961 59.1156 91.2961 59.8996V63.6096H90.0781V56.6096H91.2961V57.6176C91.7907 56.8243 92.5467 56.4276 93.5641 56.4276ZM103.48 63.6096V53.3896H104.698V63.6096H103.48ZM112.673 55.3356C112.439 55.3356 112.243 55.2563 112.085 55.0976C111.926 54.939 111.847 54.7476 111.847 54.5236C111.847 54.2996 111.926 54.1083 112.085 53.9496C112.243 53.7816 112.439 53.6976 112.673 53.6976C112.897 53.6976 113.088 53.7816 113.247 53.9496C113.405 54.1083 113.485 54.2996 113.485 54.5236C113.485 54.7476 113.405 54.939 113.247 55.0976C113.088 55.2563 112.897 55.3356 112.673 55.3356ZM112.057 63.6096V56.6096H113.275V63.6096H112.057ZM124.119 56.4276C124.94 56.4276 125.598 56.689 126.093 57.2116C126.587 57.725 126.835 58.425 126.835 59.3116V63.6096H125.617V59.3816C125.617 58.8123 125.463 58.3736 125.155 58.0656C124.847 57.7483 124.422 57.5896 123.881 57.5896C123.274 57.5896 122.784 57.781 122.411 58.1636C122.037 58.537 121.851 59.1156 121.851 59.8996V63.6096H120.633V56.6096H121.851V57.6176C122.345 56.8243 123.101 56.4276 124.119 56.4276ZM134.889 60.6696C135.01 61.295 135.295 61.7803 135.743 62.1256C136.2 62.471 136.76 62.6436 137.423 62.6436C138.347 62.6436 139.019 62.303 139.439 61.6216L140.475 62.2096C139.794 63.2643 138.767 63.7916 137.395 63.7916C136.284 63.7916 135.379 63.4463 134.679 62.7556C133.988 62.0556 133.643 61.1736 133.643 60.1096C133.643 59.055 133.984 58.1776 134.665 57.4776C135.346 56.7776 136.228 56.4276 137.311 56.4276C138.338 56.4276 139.173 56.7916 139.817 57.5196C140.47 58.2383 140.797 59.1063 140.797 60.1236C140.797 60.301 140.783 60.483 140.755 60.6696H134.889ZM137.311 57.5756C136.658 57.5756 136.116 57.7623 135.687 58.1356C135.258 58.4996 134.992 58.9896 134.889 59.6056H139.565C139.462 58.943 139.201 58.439 138.781 58.0936C138.361 57.7483 137.871 57.5756 137.311 57.5756ZM162.507 56.6096H163.711V63.3156C163.711 64.3516 163.361 65.1543 162.661 65.7236C161.961 66.3023 161.121 66.5916 160.141 66.5916C159.357 66.5916 158.681 66.4423 158.111 66.1436C157.542 65.8543 157.113 65.4343 156.823 64.8836L157.887 64.2816C158.27 65.0656 159.031 65.4576 160.169 65.4576C160.897 65.4576 161.467 65.2663 161.877 64.8836C162.297 64.501 162.507 63.9783 162.507 63.3156V62.3216C161.891 63.255 161.014 63.7216 159.875 63.7216C158.877 63.7216 158.032 63.367 157.341 62.6576C156.651 61.9483 156.305 61.085 156.305 60.0676C156.305 59.0503 156.651 58.1916 157.341 57.4916C158.032 56.7823 158.877 56.4276 159.875 56.4276C161.023 56.4276 161.901 56.8896 162.507 57.8136V56.6096ZM158.237 61.8456C158.713 62.3216 159.306 62.5596 160.015 62.5596C160.725 62.5596 161.317 62.3216 161.793 61.8456C162.269 61.3696 162.507 60.777 162.507 60.0676C162.507 59.3676 162.269 58.7796 161.793 58.3036C161.317 57.8276 160.725 57.5896 160.015 57.5896C159.306 57.5896 158.713 57.8276 158.237 58.3036C157.761 58.7796 157.523 59.3676 157.523 60.0676C157.523 60.777 157.761 61.3696 158.237 61.8456ZM172.275 57.7856C172.676 56.9176 173.404 56.4836 174.459 56.4836V57.7576C173.861 57.7296 173.348 57.8883 172.919 58.2336C172.489 58.579 172.275 59.1343 172.275 59.8996V63.6096H171.057V56.6096H172.275V57.7856ZM186.676 62.7276C185.957 63.437 185.084 63.7916 184.058 63.7916C183.031 63.7916 182.158 63.437 181.44 62.7276C180.73 62.0183 180.376 61.1456 180.376 60.1096C180.376 59.0736 180.73 58.201 181.44 57.4916C182.158 56.7823 183.031 56.4276 184.058 56.4276C185.084 56.4276 185.957 56.7823 186.676 57.4916C187.394 58.201 187.754 59.0736 187.754 60.1096C187.754 61.1456 187.394 62.0183 186.676 62.7276ZM184.058 62.6016C184.758 62.6016 185.346 62.3636 185.822 61.8876C186.298 61.4116 186.536 60.819 186.536 60.1096C186.536 59.4003 186.298 58.8076 185.822 58.3316C185.346 57.8556 184.758 57.6176 184.058 57.6176C183.367 57.6176 182.784 57.8556 182.308 58.3316C181.832 58.8076 181.594 59.4003 181.594 60.1096C181.594 60.819 181.832 61.4116 182.308 61.8876C182.784 62.3636 183.367 62.6016 184.058 62.6016ZM197.979 63.7916C196.925 63.7916 196.047 63.4416 195.347 62.7416C194.647 62.0323 194.297 61.155 194.297 60.1096C194.297 59.0643 194.647 58.1916 195.347 57.4916C196.047 56.7823 196.925 56.4276 197.979 56.4276C198.67 56.4276 199.291 56.5956 199.841 56.9316C200.392 57.2583 200.803 57.7016 201.073 58.2616L200.051 58.8496C199.874 58.4763 199.599 58.1776 199.225 57.9536C198.861 57.7296 198.446 57.6176 197.979 57.6176C197.279 57.6176 196.691 57.8556 196.215 58.3316C195.749 58.8076 195.515 59.4003 195.515 60.1096C195.515 60.8096 195.749 61.3976 196.215 61.8736C196.691 62.3496 197.279 62.5876 197.979 62.5876C198.446 62.5876 198.866 62.4803 199.239 62.2656C199.613 62.0416 199.897 61.743 200.093 61.3696L201.129 61.9716C200.831 62.5223 200.401 62.9656 199.841 63.3016C199.281 63.6283 198.661 63.7916 197.979 63.7916ZM208.59 60.6696C208.712 61.295 208.996 61.7803 209.444 62.1256C209.902 62.471 210.462 62.6436 211.124 62.6436C212.048 62.6436 212.72 62.303 213.14 61.6216L214.176 62.2096C213.495 63.2643 212.468 63.7916 211.096 63.7916C209.986 63.7916 209.08 63.4463 208.38 62.7556C207.69 62.0556 207.344 61.1736 207.344 60.1096C207.344 59.055 207.685 58.1776 208.366 57.4776C209.048 56.7776 209.93 56.4276 211.012 56.4276C212.039 56.4276 212.874 56.7916 213.518 57.5196C214.172 58.2383 214.498 59.1063 214.498 60.1236C214.498 60.301 214.484 60.483 214.456 60.6696H208.59ZM211.012 57.5756C210.359 57.5756 209.818 57.7623 209.388 58.1356C208.959 58.4996 208.693 58.9896 208.59 59.6056H213.266C213.164 58.943 212.902 58.439 212.482 58.0936C212.062 57.7483 211.572 57.5756 211.012 57.5756ZM222.616 57.7856C223.018 56.9176 223.746 56.4836 224.8 56.4836V57.7576C224.203 57.7296 223.69 57.8883 223.26 58.2336C222.831 58.579 222.616 59.1343 222.616 59.8996V63.6096H221.398V56.6096H222.616V57.7856ZM232.108 55.3356C231.875 55.3356 231.679 55.2563 231.52 55.0976C231.361 54.939 231.282 54.7476 231.282 54.5236C231.282 54.2996 231.361 54.1083 231.52 53.9496C231.679 53.7816 231.875 53.6976 232.108 53.6976C232.332 53.6976 232.523 53.7816 232.682 53.9496C232.841 54.1083 232.92 54.2996 232.92 54.5236C232.92 54.7476 232.841 54.939 232.682 55.0976C232.523 55.2563 232.332 55.3356 232.108 55.3356ZM231.492 63.6096V56.6096H232.71V63.6096H231.492ZM240.922 60.6696C241.044 61.295 241.328 61.7803 241.776 62.1256C242.234 62.471 242.794 62.6436 243.456 62.6436C244.38 62.6436 245.052 62.303 245.472 61.6216L246.508 62.2096C245.827 63.2643 244.8 63.7916 243.428 63.7916C242.318 63.7916 241.412 63.4463 240.712 62.7556C240.022 62.0556 239.676 61.1736 239.676 60.1096C239.676 59.055 240.017 58.1776 240.698 57.4776C241.38 56.7776 242.262 56.4276 243.344 56.4276C244.371 56.4276 245.206 56.7916 245.85 57.5196C246.504 58.2383 246.83 59.1063 246.83 60.1236C246.83 60.301 246.816 60.483 246.788 60.6696H240.922ZM243.344 57.5756C242.691 57.5756 242.15 57.7623 241.72 58.1356C241.291 58.4996 241.025 58.9896 240.922 59.6056H245.598C245.496 58.943 245.234 58.439 244.814 58.0936C244.394 57.7483 243.904 57.5756 243.344 57.5756ZM257.333 57.7856H255.471V61.5796C255.471 61.925 255.537 62.1723 255.667 62.3216C255.807 62.4616 256.017 62.5363 256.297 62.5456C256.577 62.5456 256.923 62.5363 257.333 62.5176V63.6096C256.269 63.7496 255.49 63.6656 254.995 63.3576C254.501 63.0403 254.253 62.4476 254.253 61.5796V57.7856H252.867V56.6096H254.253V55.0136L255.471 54.6496V56.6096H257.333V57.7856Z" fill="white"/>
</svg>
